<svg width="128" height="127" viewBox="0 0 128 127" fill="none" xmlns="http://www.w3.org/2000/svg">
<path d="M74.3848 58.1632H79.6724C85.5129 58.1632 90.2476 62.8979 90.2476 68.7384V84.6013C90.2476 88.9817 93.7986 92.5327 98.1791 92.5327C102.559 92.5327 106.11 88.9817 106.11 84.6013V47.588L90.2476 31.7251" stroke="#0F0F0F" stroke-width="9.25334" stroke-linecap="round" stroke-linejoin="round"/>
<path d="M21.5093 105.753V31.7266C21.5093 25.8861 26.244 21.1514 32.0845 21.1514H63.8102C69.6508 21.1514 74.3855 25.8861 74.3855 31.7266V105.753" stroke="#0F0F0F" stroke-width="9.25334" stroke-linecap="round" stroke-linejoin="round"/>
<path d="M16.2222 105.753H79.6736" stroke="#0F0F0F" stroke-width="9.25334" stroke-linecap="round" stroke-linejoin="round"/>
<path d="M95.5361 37.0137V42.3013C95.5361 45.2216 97.9035 47.5889 100.824 47.5889H106.111" stroke="#0F0F0F" stroke-width="9.25334" stroke-linecap="round" stroke-linejoin="round"/>
<path d="M21.5093 58.1633H74.3855" stroke="#0F0F0F" stroke-width="9.25334" stroke-linecap="round" stroke-linejoin="round"/>
</svg>
