<svg width="128" height="127" viewBox="0 0 128 127" fill="none" xmlns="http://www.w3.org/2000/svg">
<path d="M64.1575 10.5752V23.7942M64.1575 10.5752C34.9547 10.5752 11.2812 34.2487 11.2812 63.4514M64.1575 10.5752C93.3602 10.5752 117.034 34.2487 117.034 63.4514M64.1575 103.109V116.328M64.1575 116.328C93.3602 116.328 117.034 92.6541 117.034 63.4514M64.1575 116.328C34.9547 116.328 11.2812 92.6541 11.2812 63.4514M24.5003 63.4514H11.2812M117.034 63.4514H103.815M101.586 100.879L92.2066 91.5006M26.7297 100.879L36.118 91.4912M26.7297 26.4381L35.9114 35.6198M101.586 26.4381L72.0884 55.52M74.7327 63.4514C74.7327 69.292 69.998 74.0267 64.1575 74.0267C58.3169 74.0267 53.5822 69.292 53.5822 63.4514C53.5822 57.6109 58.3169 52.8762 64.1575 52.8762C69.998 52.8762 74.7327 57.6109 74.7327 63.4514Z" stroke="black" stroke-width="7.93143" stroke-linecap="round" stroke-linejoin="round"/>
</svg>
