<svg width="128" height="127" viewBox="0 0 128 127" fill="none" xmlns="http://www.w3.org/2000/svg">
<path d="M117.136 111.039V100.464C117.136 90.609 110.395 82.328 101.273 79.9801M82.7662 17.3997C90.5174 20.5373 95.9852 28.1365 95.9852 37.0128C95.9852 45.8891 90.5174 53.4882 82.7662 56.6259M90.6976 111.039C90.6976 101.185 90.6976 96.2572 89.0876 92.3703C86.941 87.1878 82.8235 83.0704 77.6411 80.9237C73.7542 79.3138 68.8268 79.3138 58.9719 79.3138H43.109C33.2541 79.3138 28.3267 79.3138 24.4398 80.9237C19.2574 83.0704 15.1399 87.1878 12.9933 92.3703C11.3833 96.2572 11.3833 101.185 11.3833 111.039M72.1909 37.0128C72.1909 48.6939 62.7216 58.1633 51.0405 58.1633C39.3594 58.1633 29.89 48.6939 29.89 37.0128C29.89 25.3317 39.3594 15.8623 51.0405 15.8623C62.7216 15.8623 72.1909 25.3317 72.1909 37.0128Z" stroke="black" stroke-width="7.93143" stroke-linecap="round" stroke-linejoin="round"/>
</svg>
