<svg width="158" height="159" viewBox="0 0 158 159" fill="none" xmlns="http://www.w3.org/2000/svg">
<path d="M92.2817 72.9724H98.8535C106.112 72.9724 111.997 78.857 111.997 86.1159V105.831C111.997 111.275 116.41 115.689 121.855 115.689C127.299 115.689 131.712 111.275 131.712 105.831V59.829L111.997 40.1138" stroke="black" stroke-width="13.8006" stroke-linecap="round" stroke-linejoin="round"/>
<path d="M26.5664 132.119V40.1147C26.5664 32.8557 32.4509 26.9712 39.7099 26.9712H79.1403C86.3992 26.9712 92.2838 32.8557 92.2838 40.1147V132.119" stroke="black" stroke-width="13.8006" stroke-linecap="round" stroke-linejoin="round"/>
<path d="M19.9941 132.118H98.855" stroke="black" stroke-width="13.8006" stroke-linecap="round" stroke-linejoin="round"/>
<path d="M118.57 46.687V53.2587C118.57 56.8882 121.512 59.8305 125.142 59.8305H131.713" stroke="black" stroke-width="13.8006" stroke-linecap="round" stroke-linejoin="round"/>
<path d="M26.5664 72.9719H92.2838" stroke="black" stroke-width="13.8006" stroke-linecap="round" stroke-linejoin="round"/>
</svg>
