<svg width="423" height="144" viewBox="0 0 423 144" fill="none" xmlns="http://www.w3.org/2000/svg">
<path d="M73.7772 8.86328C56.8215 9.41537 40.767 16.45 29.0745 28.4508C17.3819 40.4516 10.9879 56.4574 11.2707 73.0179C11.5535 89.5783 18.4905 105.367 30.5862 116.981C42.682 128.594 58.9678 135.103 75.9329 135.103C92.8981 135.103 109.184 128.594 121.28 116.981C133.375 105.367 140.312 89.5783 140.595 73.0179C140.878 56.4574 134.484 40.4516 122.791 28.4508C111.099 16.45 95.0444 9.41537 78.0886 8.86328H73.7772ZM164.317 8.86328C147.361 9.41537 131.307 16.45 119.614 28.4508C107.922 40.4516 101.528 56.4574 101.81 73.0179C102.093 89.5783 109.03 105.367 121.126 116.981C133.222 128.594 149.507 135.103 166.473 135.103C183.438 135.103 199.724 128.594 211.819 116.981C223.915 105.367 230.852 89.5783 231.135 73.0179C231.418 56.4574 225.024 40.4516 213.331 28.4508C201.639 16.45 185.584 9.41537 168.628 8.86328H164.317ZM254.857 8.86328C237.901 9.41537 221.846 16.45 210.154 28.4508C198.461 40.4516 192.067 56.4574 192.35 73.0179C192.633 89.5783 199.57 105.367 211.666 116.981C223.761 128.594 240.047 135.103 257.012 135.103C273.977 135.103 290.263 128.594 302.359 116.981C314.455 105.367 321.392 89.5783 321.675 73.0179C321.957 56.4574 315.563 40.4516 303.871 28.4508C292.178 16.45 276.124 9.41537 259.168 8.86328H254.857ZM345.396 8.86328C328.441 9.41537 312.386 16.45 300.694 28.4508C289.001 40.4516 282.607 56.4574 282.89 73.0179C283.173 89.5783 290.11 105.367 302.205 116.981C314.301 128.594 330.587 135.103 347.552 135.103C364.517 135.103 380.803 128.594 392.899 116.981C404.994 105.367 411.931 89.5783 412.214 73.0179C412.497 56.4574 406.103 40.4516 394.41 28.4508C382.718 16.45 366.663 9.41537 349.708 8.86328H345.396Z" stroke="black" stroke-width="9.82135"/>
</svg>
