<svg width="188" height="184" viewBox="0 0 188 184" fill="none" xmlns="http://www.w3.org/2000/svg">
<g clip-path="url(#clip0_521_3591)">
<path d="M93.7769 0C42.0291 0 0.0732422 41.193 0.0732422 92C0.0732422 142.807 42.0291 184 93.7769 184C145.525 184 187.481 142.807 187.481 92C187.481 41.193 145.525 0 93.7769 0ZM93.7769 5.98C142.159 5.98 181.382 44.4897 181.382 92C181.382 139.503 142.167 178.012 93.7769 178.012C45.3868 178.012 6.17179 139.503 6.17179 92C6.17179 44.4973 45.3946 5.98 93.7769 5.98ZM88.4827 10.81C85.9058 10.9173 83.329 11.132 80.7365 11.408L79.901 33.9787C81.7396 33.6732 83.5889 33.4328 85.4451 33.258L85.9917 18.0167L85.8902 16.9663L86.226 17.963L91.4109 29.3787H96.143L101.328 17.9707L101.64 16.9663L101.562 18.0167L102.109 33.258C103.92 33.4267 105.802 33.672 107.653 33.9787L106.802 11.408C104.227 11.1232 101.644 10.9237 99.0556 10.81L93.9565 23.2683L93.7769 24.1883L93.5973 23.2683L88.4827 10.81ZM140.769 24.794L128.721 43.4087C130.243 44.5587 132.25 46.253 133.539 47.4107L144.885 41.63L145.603 41.101L145.064 41.8217L139.192 52.9613C140.465 54.303 142.3 56.4727 143.331 57.7913L162.306 45.954C161.142 44.476 159.944 43.0241 158.714 41.5993L146.696 49.3733L145.876 50.0787L146.485 49.197L151.795 38.801L148.047 35.121L137.458 40.3343L136.56 40.9323L137.271 40.1197L145.22 28.3207C143.815 27.1553 142.479 26.0897 140.769 24.794ZM43.0208 29.0183C40.2097 29.302 38.0389 31.188 32.1433 37.6433C30.099 39.918 28.1277 42.2549 26.2322 44.6507L42.4273 59.731C47.7919 53.9043 49.9705 51.7423 54.2027 47.3647C57.1935 44.2597 58.8879 40.6947 55.8894 37.2677C54.2652 35.4123 51.5322 35.006 49.2521 35.926L49.0334 36.0027L49.1115 35.8033C49.3931 34.7861 49.3633 33.7099 49.0259 32.7091C48.6884 31.7083 48.0583 30.8273 47.214 30.176C46.6272 29.7217 45.9544 29.3862 45.2347 29.1888C44.5149 28.9914 43.7624 28.9284 43.0208 29.0183ZM43.0676 33.7333C44.1296 33.4497 45.2306 34.1933 45.4727 35.2667C45.7226 36.34 45.0354 37.352 44.2702 38.1953C42.5523 40.112 36.2194 46.6133 36.2194 46.6133L33.0804 43.677C36.3366 39.767 39.8036 36.2097 41.3731 34.799C41.844 34.317 42.4248 33.9518 43.0676 33.7333ZM93.7769 37.4363C80.0213 37.4304 66.7525 42.4355 56.5395 51.4828C46.3265 60.53 39.8956 72.9759 38.4918 86.411V86.4263C37.6094 94.9501 38.7824 103.558 41.9159 111.554C45.0495 119.551 50.0556 126.711 56.5295 132.456C63.0034 138.2 70.7634 142.369 79.182 144.624C87.6007 146.879 96.4416 147.158 104.99 145.437C117.521 142.908 128.777 136.209 136.859 126.473C144.94 116.737 149.35 104.56 149.343 92C149.329 77.5359 143.47 63.6684 133.052 53.4415C122.634 43.2146 108.509 37.4638 93.7769 37.4517V37.4363ZM50.5405 39.2917C50.9075 39.2917 51.2901 39.3913 51.6337 39.6213C52.3209 40.0737 52.6332 40.848 52.4614 41.6147C52.2584 42.527 51.4853 43.3857 50.8607 44.0527L42.7006 52.6393L39.421 49.5727C39.421 49.5727 45.5664 43.194 47.581 41.147C48.3775 40.3343 48.8929 39.8437 49.4395 39.5753C49.7781 39.4027 50.1592 39.3058 50.5405 39.2917ZM93.7769 44.6047C100.118 44.5976 106.399 45.8187 112.259 48.198C118.119 50.5774 123.443 54.0682 127.927 58.4707C132.411 62.8732 135.967 68.1008 138.39 73.8542C140.813 79.6077 142.057 85.774 142.05 92H93.7769V139.395C87.4356 139.402 81.1552 138.181 75.2952 135.802C69.4352 133.423 64.1107 129.932 59.6267 125.529C55.1427 121.127 51.5872 115.899 49.1638 110.146C46.7404 104.392 45.4967 98.226 45.5039 92H93.7769V44.6047Z" fill="black"/>
</g>
<defs>
<clipPath id="clip0_521_3591">
<rect width="187.407" height="184" fill="white" transform="translate(0.0732422)"/>
</clipPath>
</defs>
</svg>
