<svg width="280" height="184" viewBox="0 0 280 184" fill="none" xmlns="http://www.w3.org/2000/svg">
<path d="M139.703 1.27148C63.2664 1.27148 1.29102 41.8901 1.29102 91.9814C1.29102 142.091 63.2664 182.728 139.703 182.728C216.14 182.728 278.115 142.11 278.115 91.9814C278.115 41.8532 216.14 1.27148 139.703 1.27148ZM139.703 143.787C128.334 143.787 119.057 121.1 118.475 92.5527C125.314 93.1609 132.427 93.4926 139.703 93.4926C146.979 93.4926 154.092 93.1609 160.932 92.5527C160.35 121.082 151.072 143.787 139.703 143.787ZM119.875 69.8845C122.968 49.7042 130.681 35.3845 139.703 35.3845C148.726 35.3845 156.439 49.7042 159.531 69.8845C153.182 70.4558 146.561 70.7691 139.703 70.7691C132.845 70.7691 126.224 70.4558 119.875 69.8845ZM139.703 14.3933C124.86 14.3933 112.199 36.9141 107.524 68.3548C79.3832 63.9133 59.7374 53.7771 59.7374 42.0006C59.7374 26.1144 95.5365 13.2322 139.703 13.2322C183.87 13.2322 219.669 26.1144 219.669 42.0006C219.669 53.7771 200.023 63.9133 171.882 68.3548C167.207 36.9141 154.547 14.3933 139.703 14.3933ZM21.1369 88.5904C21.1369 73.2202 26.9761 58.7899 37.1447 46.4053C37.0355 47.2715 36.9628 48.1561 36.9628 49.0407C36.9628 68.4101 65.6311 84.9229 105.632 91.0047C105.596 92.4053 105.596 93.8244 105.596 95.2434C105.596 131.347 115.582 161.921 129.389 172.297C68.7235 168.593 21.1369 132.526 21.1369 88.5904ZM150.017 172.297C163.824 161.921 173.811 131.347 173.811 95.2434C173.811 93.8059 173.792 92.4053 173.774 91.0047C213.757 84.9229 242.444 68.4285 242.444 49.0407C242.444 48.1561 242.371 47.2715 242.262 46.4053C252.43 58.8268 258.269 73.2202 258.269 88.5904C258.269 132.526 210.683 168.593 150.017 172.297Z" fill="black"/>
</svg>
