<svg width="393" height="150" viewBox="0 0 393 150" fill="none" xmlns="http://www.w3.org/2000/svg">
<g clip-path="url(#clip0_521_3570)">
<path d="M325.022 105.89C325.109 106.447 325.84 106.981 326.548 107.234C326.809 107.321 326.936 107.495 326.664 108.088C324.645 112.419 322.788 114.916 320.257 118.68C317.928 122.158 315.305 124.871 312.13 127.48C307.341 131.447 300.689 135.765 295.19 132.862C292.748 131.594 291.691 128.172 291.738 125.403C291.854 117.614 295.317 109.618 301.709 101.759C309.503 92.1562 318.118 87.1754 323.773 89.8979C329.623 92.6906 327.756 99.4693 325.136 104.79C324.933 105.202 324.933 105.551 325.02 105.887M387.797 45.2C388.218 44.4568 387.775 43.9141 386.837 43.9141C381.951 43.9141 375.54 43.9251 370.449 43.9251C369.236 43.9251 368.61 44.07 368.038 45.2022C366.159 48.8057 343.258 83.1571 338.995 89.8279C338.276 90.8439 337.4 90.7014 337.298 89.5373C336.866 85.5753 333.447 81.0208 328.061 78.8416C323.956 77.1752 319.943 76.8732 315.771 77.4276C308.238 78.4408 301.528 82.4174 295.628 86.9026C286.736 93.668 279.064 102.437 269.161 108.916C263.754 112.444 256.351 115.52 251.397 110.928C246.913 106.768 247.42 97.5277 254.28 90.3811C255.002 89.6322 255.869 90.2647 255.733 90.9295C255.086 94.1614 255.878 97.3757 258.332 99.6293C261.324 102.315 265.607 102.618 269.273 100.825C273.599 98.68 276.141 94.5377 276.882 89.8363C278.027 82.5434 272.419 76.1112 265.4 75.5951C259.698 75.1945 254.231 77.1799 248.903 81.5808C246.232 83.7987 244.715 85.4371 242.405 88.7254C241.842 89.5353 240.977 89.6162 241.003 88.4202C241.264 79.083 237.41 73.8297 229.697 73.6585C223.71 73.5133 217.315 76.7661 212.329 80.7441C206.864 85.1366 202.086 90.9578 196.963 96.4276C196.325 97.1011 195.771 97.069 195.591 95.7627C195.446 89.5761 193.883 83.584 191.022 79.3288C190.01 77.8483 187.879 77.1165 186.089 78.1151C185.262 78.568 182.387 79.8918 180.293 81.5791C179.254 82.4354 178.848 83.6752 179.309 85.2641C182.07 94.5066 181.464 105.015 177.717 113.89C174.276 122.019 167.591 129.351 159.732 131.832C154.555 133.475 149.173 132.671 145.843 128.078C141.27 121.738 143.116 110.713 149.934 101.558C155.951 93.4966 164.654 88.3761 173.335 85.0789C174.356 84.6841 174.568 84.028 174.278 83.16C173.808 81.7317 173.054 79.7864 172.749 78.8987C171.952 76.7766 169.723 76.4339 167 76.73C160.693 77.4644 155.003 79.6274 149.382 82.6395C134.665 90.5275 127.285 105.794 124.052 113.961C122.494 117.885 121.163 120.332 119.442 122.502C117.122 125.421 114.209 128.079 108.884 132.76C108.402 133.189 108.043 134.083 108.449 134.916C108.991 136.043 111.761 139.958 112.543 140.307C113.41 140.734 114.416 140.133 114.819 139.848C118.546 137.32 123.005 133.313 125.186 130.594C125.952 129.663 126.738 130.055 127.144 131.468C129.18 138.739 134.512 144.676 141.885 147.159C155.38 151.714 169.377 145.121 179.942 133.643C186.657 126.348 189.08 121.656 191.654 118.467C196.016 113.058 204.62 100.958 214.867 93.1895C218.626 90.3243 223.073 88.139 225.309 89.5905C227.104 90.7546 227.685 93.4598 224.804 98.7017C214.356 117.798 198.983 140.233 196.164 145.674C195.647 146.617 196.106 147.36 197.086 147.36C202.554 147.333 207.973 147.347 212.936 147.347C213.763 147.318 214.132 146.929 214.547 146.345C222.565 133.783 230.111 121.827 238.199 109.466C238.652 108.737 239.069 109.291 239.087 109.611C239.261 112.479 239.957 116.401 241.659 118.977C244.717 123.739 249.049 125.786 253.855 125.817C257.678 125.875 259.613 125.28 263.736 123.738C267.091 122.493 269.784 120.859 271.851 119.38C273.058 118.538 273.269 119.946 273.24 120.161C271.384 130.133 273.676 141.95 283.579 146.849C295.43 152.697 308.45 144.477 315.942 137.056C316.675 136.342 317.461 136.418 317.537 137.959C317.711 140.792 318.975 144.155 321.317 146.507C327.595 152.813 340.264 150.314 352.978 140.465C361.14 134.16 369.681 125.251 377.396 115.817C377.686 115.451 377.895 114.865 377.338 114.27C376.163 113.039 374.464 111.631 373.298 110.547C372.768 110.094 371.988 110.224 371.541 110.562C363.633 118.089 356.514 126.674 346.226 133.773C342.756 136.197 337.225 138.152 334.742 134.786C333.773 133.48 333.883 131.674 334.829 129.302C337.828 121.816 385.321 49.447 387.786 45.1787" fill="black"/>
<path d="M164.355 53.9312C164.558 55.0053 164.976 55.2145 165.463 55.1246C167.882 54.6398 170.53 52.6481 172.097 50.3397C173.524 48.2466 174.194 45.2262 172.776 44.016C171.511 42.9273 169.452 43.2348 167.925 44.5847C164.885 47.2729 163.962 51.087 164.354 53.9334M43.3087 147.088C25.6007 147.204 10.0001 136.259 8.20987 117.298C7.21499 106.791 10.1823 97.4276 16.1229 89.7132C21.3943 82.8392 30.3139 77.1285 37.864 75.7333C40.3207 75.2834 43.6218 75.5591 44.9865 77.1964C47.1271 79.6901 46.5119 82.4294 44.3713 83.5224C38.6112 86.4657 31.6802 91.5048 28.2506 98.3855C25.469 104.002 24.907 110.77 29.1557 117.218C36.2669 127.963 56.0894 128.259 74.5203 111.122C79.0848 106.927 83.1695 102.898 87.3216 98.1241C95.4393 88.8346 98.1394 85.4495 108.93 70.4692C109.046 70.295 109.104 70.0683 109.046 69.958C108.959 69.7548 108.814 69.7257 108.492 69.6967C101.289 69.8999 95.0083 72.0455 88.9038 76.6113C87.1461 77.8944 84.616 77.7143 83.5083 76.0248C82.2756 74.1146 83.1604 71.628 85.1879 70.2238C95.0079 63.3884 105.735 62.1487 116.69 60.2983C116.681 60.2983 117.45 60.3272 118.077 59.5028C122.574 53.7264 125.97 48.5159 130.764 42.6742C135.594 36.7472 141.833 31.3045 146.6 27.2162C153.254 21.4898 157.522 19.5627 161.859 17.2009C163.002 16.6029 161.714 15.8888 161.366 15.8888C137.152 11.334 111.984 5.44011 87.9368 14.35C71.2825 20.5702 63.9841 33.7883 67.4947 42.6206C69.992 48.8859 78.2249 49.9044 85.9328 46.1293C92.3345 42.99 98.2588 37.9304 102.458 31.4173C104.808 27.8001 109.759 30.4098 107.084 36.6907C100.047 53.2442 86.6037 66.3746 70.2285 66.929C56.2923 67.3819 47.3007 57.1207 47.33 44.4616C47.388 19.493 75.1601 3.04555 104.348 0.586721C139.498 -2.32062 172.791 7.05042 207.692 11.2873C234.432 14.5282 260.068 14.5957 286.946 8.41606C290.123 7.72515 292.352 9.75429 292.145 12.9662C291.884 17.6089 288.29 22.0803 279.438 26.9124C269.371 32.4385 258.839 34.1153 247.839 34.2053C221.24 34.4375 196.464 24.0502 170.825 18.4744C170.854 19.5978 171.15 20.9359 170.21 21.6451C156.008 32.1293 143.171 42.776 134.574 57.7296C134.284 58.0751 134.429 58.4032 134.942 58.3684C142.407 57.9706 149.12 57.7789 156.089 57.2215C157.307 57.1054 157.353 56.8151 157.246 55.9268C156.628 50.7725 158.133 44.8949 162.663 40.8519C167.3 36.6913 173.105 36.2182 176.954 39.2147C181.329 42.6269 180.941 48.7634 178.549 53.3656C176.112 58.035 172.088 60.5325 168.227 61.7451C168.227 61.7451 167.414 61.9193 167.536 62.6567C167.681 63.8353 172.95 66.7536 173.4 67.531C173.835 68.2713 173.603 69.4181 172.811 70.2977C172.255 70.9364 171.381 71.5344 170.265 71.5141C169.363 71.4961 168.815 71.1832 167.66 70.5591C165.299 69.2789 162.348 67.174 160.38 64.6925C159.71 63.8536 159.368 63.8364 157.694 63.9293C150.153 64.3647 138.394 65.5027 130.427 66.4985C128.495 66.7307 128.211 67.0992 127.814 67.7698C115.111 88.7337 101.549 111.341 86.6577 126.477C70.6857 142.706 57.4093 146.978 43.3153 147.089" fill="black"/>
</g>
<defs>
<clipPath id="clip0_521_3570">
<rect width="391.852" height="149.926" fill="white" transform="translate(0.407227 0.0371094)"/>
</clipPath>
</defs>
</svg>
