<svg width="373" height="150" viewBox="0 0 373 150" fill="none" xmlns="http://www.w3.org/2000/svg">
<g clip-path="url(#clip0_521_3577)">
<path d="M310.415 80.0741C310.113 96.7542 313.712 105.589 327.446 105.589C341.158 105.589 343.126 90.5392 343.126 79.0866C343.126 67.6264 340.524 56.5013 326.117 56.5013C317.28 56.5013 310.755 63.3764 310.415 80.0741ZM282.629 149.777V36.8686H310.755C310.755 36.8686 310.755 38.5036 310.755 41.4486C310.755 47.5579 313.216 45.0386 315.199 42.6579C315.531 42.2598 321.799 34.5786 335.916 34.5786C349.99 34.5786 371.886 44.3937 371.886 79.0866C371.886 105.922 358.823 125.555 336.264 125.555C323.832 125.555 316.646 120.655 315.002 118.677C313.357 116.727 311.072 116.387 311.072 118.677C311.072 120.972 311.072 149.777 311.072 149.777H282.629" fill="black"/>
<path d="M65.2438 0.223368H95.647C95.647 0.223368 95.647 66.324 95.647 80.0742C95.647 93.8093 89.7561 122.617 47.5937 122.617C5.42638 122.617 0.851562 95.7668 0.851562 80.7242V65.9991H30.2733C30.2733 65.9991 30.2733 71.5616 30.2733 80.3917C30.2733 89.2267 36.1592 97.4043 47.2666 97.4043C58.379 97.4043 65.2438 91.1893 65.2438 80.7242C65.2438 70.2516 65.2438 0.223368 65.2438 0.223368Z" fill="black"/>
<path d="M159.224 67.9616C159.224 59.7714 154.656 51.9189 144.196 51.9189C134.062 51.9189 130.464 59.1114 130.464 67.9616H159.224ZM141.264 33.5962C165.14 33.5962 186.051 42.7563 186.051 84.9742H129.505C129.505 98.3919 135.056 103.957 144.862 103.957C154.671 103.957 157.938 96.0968 157.938 96.0968H185.731C185.731 108.21 169.058 124.572 143.881 124.247C115.124 124.247 101.064 102.974 101.064 81.0467C101.064 59.1114 113.478 33.5962 141.264 33.5962" fill="black"/>
<path d="M249.621 67.9616C249.621 59.7714 245.048 51.9189 234.588 51.9189C224.459 51.9189 220.853 59.1114 220.853 67.9616H249.621ZM231.661 33.5962C255.534 33.5962 276.441 42.7563 276.441 84.9742H219.897C219.897 98.3919 225.453 103.957 235.267 103.957C245.066 103.957 248.337 96.0968 248.337 96.0968H276.131C276.131 108.21 259.455 124.572 234.286 124.247C205.513 124.247 191.454 102.974 191.454 81.0467C191.454 59.1114 203.883 33.5962 231.661 33.5962" fill="black"/>
<path d="M353.27 136.24C353.27 131.769 356.906 128.136 361.388 128.136C365.855 128.136 369.483 131.769 369.483 136.24C369.483 140.704 365.855 144.36 361.388 144.36C356.906 144.36 353.27 140.704 353.27 136.24ZM352.334 136.24C352.334 141.244 356.38 145.305 361.388 145.305C366.363 145.305 370.432 141.244 370.432 136.24C370.432 131.237 366.363 127.176 361.388 127.176C356.38 127.176 352.334 131.237 352.334 136.24" fill="black"/>
<path d="M365.022 140.876L363.142 136.432C363.738 136.225 363.937 136.079 364.254 135.739C364.667 135.296 364.926 134.595 364.926 133.961C364.926 132.358 363.695 131.267 361.911 131.267H358.137V140.876H359.257V136.714H361.984L363.776 140.876H365.022ZM359.226 135.739V132.313H361.889C363.001 132.313 363.708 132.948 363.708 133.93C363.708 135.046 362.958 135.739 361.733 135.739H359.226Z" fill="black"/>
</g>
<defs>
<clipPath id="clip0_521_3577">
<rect width="371.407" height="149.926" fill="white" transform="translate(0.666016 0.0371094)"/>
</clipPath>
</defs>
</svg>
