<svg width="188" height="184" viewBox="0 0 188 184" fill="none" xmlns="http://www.w3.org/2000/svg">
<path fill-rule="evenodd" clip-rule="evenodd" d="M135.276 14.5109C163.619 29.1458 182.98 58.3236 182.98 91.9565C182.98 125.589 163.619 154.859 135.276 169.404V159.404C146.115 153.038 155.284 144.13 161.956 133.587L135.276 122.954V106.773L164.546 129.226C170.661 118.135 174.088 105.499 174.088 91.9542C174.088 63.4112 158.524 38.3251 135.276 24.5067V14.5109ZM94.0556 4.60254C108.877 4.60254 122.862 8.14914 135.276 14.5109V24.5113C123.881 17.7815 110.543 13.7841 96.4638 13.3287L106.652 84.8679L135.276 106.775V122.956L93.8682 106.502L52.7393 123.046V106.955L81.5485 84.8656L91.6451 13.3264C77.3787 13.7818 64.1336 17.7815 52.7393 24.5067V14.5109C65.0613 8.14914 79.1403 4.60254 94.0556 4.60254ZM135.276 169.404C122.862 175.766 108.875 179.4 94.0556 179.4C79.1426 179.4 65.0637 175.766 52.7416 169.494V159.404C64.7849 166.582 78.9552 170.674 94.0556 170.674C109.062 170.674 123.143 166.582 135.276 159.404V169.404ZM52.7416 169.494C24.3025 154.859 4.94336 125.589 4.94336 91.9565C4.94336 58.3236 24.3025 29.1458 52.7416 14.5109V24.5113C29.3977 38.3274 13.8358 63.3238 13.8358 91.9565C13.8358 105.499 17.3568 118.319 23.4709 129.407L52.7416 106.955V123.046L26.1555 133.768C32.8249 144.226 41.9024 153.04 52.7416 159.404V169.494Z" fill="black"/>
</svg>
