<svg width="108" height="108" viewBox="0 0 108 108" fill="none" xmlns="http://www.w3.org/2000/svg">
<path fill-rule="evenodd" clip-rule="evenodd" d="M82.8002 53.9583C82.8002 55.906 82.6019 57.851 82.2124 59.7469C81.8327 61.5978 81.2702 63.4149 80.5333 65.152C79.8133 66.8583 78.9203 68.5026 77.8768 70.0361C76.8488 71.5599 75.6646 72.9894 74.3638 74.2926C73.0601 75.5901 71.6257 76.771 70.1026 77.8033C68.5641 78.8396 66.9174 79.7313 65.2101 80.4546C63.4705 81.1876 61.6492 81.7493 59.7999 82.1284C57.9015 82.5189 55.9494 82.7183 53.9989 82.7183C52.0469 82.7183 50.095 82.5189 48.1993 82.1284C46.3472 81.7493 44.526 81.1876 42.7877 80.4546C41.0805 79.7313 39.4322 78.8396 37.8937 77.8033C36.3707 76.7711 34.9362 75.5901 33.6354 74.2926C32.3332 72.9894 31.149 71.5599 30.1196 70.0361C29.0817 68.5026 28.1872 66.8582 27.4644 65.152C26.7274 63.4149 26.1636 61.5977 25.7824 59.7469C25.3971 57.851 25.2002 55.906 25.2002 53.9583C25.2002 52.0092 25.397 50.06 25.7825 48.1683C26.1637 46.3174 26.7275 44.4975 27.4645 42.7632C28.1873 41.0556 29.0818 39.4098 30.1197 37.8763C31.1491 36.3513 32.3333 34.9244 33.6355 33.6198C34.9364 32.3222 36.3708 31.1441 37.8938 30.1133C39.4323 29.0727 41.0806 28.1811 42.7878 27.4564C44.5261 26.7218 46.3472 26.1587 48.1994 25.7824C50.0951 25.3949 52.047 25.1982 53.999 25.1982C55.9495 25.1982 57.9015 25.3949 59.8 25.7824C61.6493 26.1589 63.4705 26.7219 65.2102 27.4564C66.9174 28.1809 68.5642 29.0727 70.1027 30.1133C71.6258 31.1441 73.0603 32.3222 74.3639 33.6198C75.6648 34.9244 76.8489 36.3513 77.8769 37.8763C78.9203 39.4098 79.8133 41.0557 80.5333 42.7632C81.2702 44.4975 81.8327 46.3174 82.2124 48.1683C82.6019 50.06 82.8002 52.0092 82.8002 53.9583ZM43.5048 31.7436C36.6461 34.9778 31.5271 41.2887 29.9309 48.8944C30.5793 48.9 40.8286 49.0292 52.6374 45.8961C48.3805 38.3438 43.8325 32.1805 43.5048 31.7436ZM54.6752 49.6781C42.0113 53.4639 29.8592 53.1915 29.4233 53.1747C29.4162 53.4387 29.4035 53.6942 29.4035 53.9583C29.4035 60.2677 31.7872 66.0197 35.7053 70.3689C35.6968 70.3562 42.4276 58.4323 55.7004 54.1465C56.021 54.0398 56.3473 53.9442 56.6707 53.8516C56.0535 52.4558 55.3797 51.0571 54.6752 49.6781ZM70.2419 35.5255C65.9117 31.7127 60.226 29.4 53.9988 29.4C52.0004 29.4 50.0611 29.6416 48.2033 30.0881C48.5717 30.5825 53.1916 36.7023 57.3978 44.4146C66.6783 40.9404 70.1813 35.6153 70.2419 35.5255ZM58.3473 57.9212C58.2925 57.9393 58.2377 57.955 58.1842 57.9746C43.6726 63.0262 38.9336 73.2068 38.8823 73.3179C43.0578 76.5604 48.2949 78.5166 53.999 78.5166C57.405 78.5166 60.6494 77.8241 63.6012 76.5703C63.237 74.4245 61.8082 66.9031 58.3473 57.9212ZM67.7428 74.3262C73.2654 70.6049 77.1876 64.6956 78.2817 57.8509C77.7754 57.688 70.8943 55.5127 62.9556 56.7836C66.1817 65.6364 67.4925 72.8461 67.7428 74.3262ZM59.291 48.0743C59.8618 49.2455 60.4146 50.4375 60.925 51.6355C61.1065 52.0653 61.2837 52.4866 61.4567 52.9078C69.9058 51.8461 78.2299 53.6324 78.5857 53.7054C78.5295 47.8832 76.4438 42.5398 72.9928 38.3565C72.9464 38.4224 69.0016 44.114 59.291 48.0743Z" fill="white"/>
</svg>
