<svg width="108" height="108" viewBox="0 0 108 108" fill="none" xmlns="http://www.w3.org/2000/svg">
<path fill-rule="evenodd" clip-rule="evenodd" d="M54.0029 25.1982C46.1812 25.1982 45.1996 25.2324 42.1276 25.3722C39.0615 25.5126 36.9687 25.9981 35.1375 26.7103C33.2433 27.4459 31.6365 28.4299 30.0356 30.0313C28.4336 31.6321 27.4496 33.2389 26.7116 35.1325C25.9976 36.9644 25.5116 39.0578 25.3736 42.1226C25.2362 45.1947 25.2002 46.1769 25.2002 53.9985C25.2002 61.8202 25.235 62.7988 25.3742 65.8709C25.5152 68.9369 26.0006 71.0297 26.7122 72.8609C27.4484 74.7552 28.4324 76.362 30.0338 77.9628C31.6341 79.5648 33.2409 80.5512 35.1339 81.2868C36.9663 81.999 39.0597 82.4844 42.1252 82.6248C45.1972 82.7646 46.1782 82.7988 53.9993 82.7988C61.8216 82.7988 62.8002 82.7646 65.8722 82.6248C68.9383 82.4844 71.0335 81.999 72.8659 81.2868C74.7595 80.5512 76.3639 79.5648 77.9642 77.9628C79.5662 76.362 80.5502 74.7552 81.2882 72.8615C81.9962 71.0297 82.4822 68.9363 82.6262 65.8715C82.7642 62.7994 82.8002 61.8202 82.8002 53.9985C82.8002 46.1769 82.7642 45.1952 82.6262 42.1232C82.4822 39.0572 81.9962 36.9644 81.2882 35.1331C80.5502 33.2389 79.5662 31.6321 77.9642 30.0313C76.3621 28.4293 74.7601 27.4453 72.8641 26.7103C71.0281 25.9981 68.9341 25.5126 65.868 25.3722C62.796 25.2324 61.818 25.1982 53.9939 25.1982H54.0029ZM51.4191 30.3882C52.186 30.387 53.0416 30.3882 54.0028 30.3882C61.6925 30.3882 62.6039 30.4158 65.6405 30.5538C68.4485 30.6822 69.9725 31.1514 70.9877 31.5456C72.3318 32.0676 73.29 32.6916 74.2974 33.6997C75.3054 34.7077 75.9294 35.6677 76.4526 37.0117C76.8468 38.0257 77.3166 39.5497 77.4444 42.3577C77.5824 45.3938 77.6124 46.3058 77.6124 53.9919C77.6124 61.6779 77.5824 62.59 77.4444 65.626C77.316 68.434 76.8468 69.958 76.4526 70.972C75.9306 72.3161 75.3054 73.2731 74.2974 74.2805C73.2894 75.2885 72.3324 75.9125 70.9877 76.4345C69.9737 76.8305 68.4485 77.2985 65.6405 77.4269C62.6045 77.5649 61.6925 77.5949 54.0028 77.5949C46.3125 77.5949 45.4011 77.5649 42.3651 77.4269C39.557 77.2973 38.033 76.8281 37.0172 76.4339C35.6732 75.9119 34.7132 75.2879 33.7052 74.2799C32.6972 73.2719 32.0731 72.3143 31.5499 70.9696C31.1557 69.9556 30.6859 68.4316 30.5581 65.6236C30.4201 62.5876 30.3925 61.6755 30.3925 53.9847C30.3925 46.2938 30.4201 45.3866 30.5581 42.3505C30.6865 39.5425 31.1557 38.0185 31.5499 37.0033C32.0719 35.6593 32.6972 34.6993 33.7052 33.6913C34.7132 32.6832 35.6732 32.0592 37.0172 31.536C38.0324 31.14 39.557 30.672 42.3651 30.543C45.0219 30.423 46.0515 30.387 51.4191 30.381V30.3882ZM69.3762 35.1703C67.4681 35.1703 65.9201 36.7165 65.9201 38.6251C65.9201 40.5331 67.4681 42.0811 69.3762 42.0811C71.2842 42.0811 72.8322 40.5331 72.8322 38.6251C72.8322 36.7171 71.2842 35.1703 69.3762 35.1703ZM54.0029 39.2083C45.8351 39.2083 39.2128 45.8306 39.2128 53.9985C39.2128 62.1664 45.8351 68.7856 54.0029 68.7856C62.1708 68.7856 68.7907 62.1664 68.7907 53.9985C68.7907 45.8306 62.1708 39.2083 54.0029 39.2083ZM54.0028 44.3984C59.3045 44.3984 63.6029 48.6962 63.6029 53.9985C63.6029 59.3001 59.3045 63.5986 54.0028 63.5986C48.7006 63.5986 44.4027 59.3001 44.4027 53.9985C44.4027 48.6962 48.7006 44.3984 54.0028 44.3984Z" fill="white"/>
</svg>
