<svg width="108" height="108" viewBox="0 0 108 108" fill="none" xmlns="http://www.w3.org/2000/svg">
<path fill-rule="evenodd" clip-rule="evenodd" d="M76.5038 35.4342C78.9822 36.1143 80.9341 38.1182 81.5965 40.663C82.8002 45.2751 82.8002 54.8982 82.8002 54.8982C82.8002 54.8982 82.8002 64.5211 81.5965 69.1335C80.9341 71.6783 78.9822 73.6822 76.5038 74.3626C72.0123 75.5982 54.0002 75.5982 54.0002 75.5982C54.0002 75.5982 35.9881 75.5982 31.4963 74.3626C29.0178 73.6822 27.066 71.6783 26.4036 69.1335C25.2002 64.5211 25.2002 54.8982 25.2002 54.8982C25.2002 54.8982 25.2002 45.2751 26.4036 40.663C27.066 38.1182 29.0178 36.1143 31.4963 35.4342C35.9881 34.1982 54.0002 34.1982 54.0002 34.1982C54.0002 34.1982 72.0123 34.1982 76.5038 35.4342ZM48.6003 46.7981V64.7981L63.0003 55.7984L48.6003 46.7981Z" fill="white"/>
</svg>
