<svg width="108" height="108" viewBox="0 0 108 108" fill="none" xmlns="http://www.w3.org/2000/svg">
<path fill-rule="evenodd" clip-rule="evenodd" d="M52.3827 43.8923L52.496 45.7608L50.6074 45.532C43.7329 44.6549 37.7272 41.6805 32.628 36.6851L30.1351 34.2065L29.4929 36.0368C28.1332 40.1171 29.0019 44.4261 31.8348 47.3242C33.3457 48.9258 33.0057 49.1546 30.3995 48.2013C29.4929 47.8962 28.6997 47.6674 28.6242 47.7818C28.3598 48.0488 29.2663 51.5189 29.984 52.8917C30.966 54.7983 32.968 56.6669 35.1587 57.7727L37.0095 58.6498L34.8188 58.6879C32.7036 58.6879 32.628 58.726 32.8546 59.5268C33.6101 62.0055 36.5941 64.6367 39.918 65.7807L42.2598 66.5815L40.2202 67.8017C37.1984 69.5558 33.6479 70.5473 30.0973 70.6236C28.3976 70.6617 27 70.8142 27 70.9286C27 71.31 31.6082 73.4454 34.29 74.2843C42.3354 76.763 51.8917 75.6953 59.0683 71.4625C64.1675 68.45 69.2667 62.4631 71.6464 56.6669C72.9306 53.5781 74.2149 47.9344 74.2149 45.2269C74.2149 43.4728 74.3282 43.244 76.4434 41.1467C77.6899 39.9264 78.8608 38.5918 79.0874 38.2104C79.4651 37.4859 79.4274 37.4859 77.501 38.1342C74.2904 39.2782 73.8371 39.1256 75.4236 37.4096C76.5945 36.1894 77.992 33.9777 77.992 33.3294C77.992 33.215 77.4255 33.4057 76.7833 33.7489C76.1035 34.1302 74.5926 34.7022 73.4594 35.0454L71.4197 35.6937L69.5689 34.4353C68.5491 33.7489 67.1137 32.9862 66.3583 32.7574C64.4319 32.2235 61.4857 32.2998 59.7482 32.9099C55.0267 34.6259 52.0428 39.0494 52.3827 43.8923Z" fill="white"/>
</svg>
