<svg width="158" height="159" viewBox="0 0 158 159" fill="none" xmlns="http://www.w3.org/2000/svg">
<path d="M78.8599 13.8379V30.2672M78.8599 13.8379C42.5652 13.8379 13.1426 43.2606 13.1426 79.5553M78.8599 13.8379C115.155 13.8379 144.577 43.2606 144.577 79.5553M78.8599 128.843V145.273M78.8599 145.273C115.155 145.273 144.577 115.85 144.577 79.5553M78.8599 145.273C42.5652 145.273 13.1426 115.85 13.1426 79.5553M29.5719 79.5553H13.1426M144.577 79.5553H128.148M125.377 126.073L113.721 114.416M32.3428 126.073L44.011 114.405M32.3428 33.5531L43.7543 44.9646M125.377 33.5531L88.7169 69.6976M92.0034 79.5553C92.0034 86.8142 86.1189 92.6987 78.8599 92.6987C71.601 92.6987 65.7165 86.8142 65.7165 79.5553C65.7165 72.2963 71.601 66.4118 78.8599 66.4118C86.1189 66.4118 92.0034 72.2963 92.0034 79.5553Z" stroke="black" stroke-width="11.8291" stroke-linecap="round" stroke-linejoin="round"/>
</svg>
