<svg width="158" height="159" viewBox="0 0 158 159" fill="none" xmlns="http://www.w3.org/2000/svg">
<path d="M144.614 138.741V125.597C144.614 113.349 136.237 103.057 124.899 100.139M101.898 22.3605C111.532 26.2601 118.327 35.7047 118.327 46.7366C118.327 57.7685 111.532 67.2132 101.898 71.1128M111.756 138.741C111.756 126.493 111.756 120.369 109.755 115.538C107.087 109.097 101.969 103.979 95.5284 101.312C90.6976 99.3105 84.5735 99.3105 72.3253 99.3105H52.6101C40.3619 99.3105 34.2378 99.3105 29.4071 101.312C22.966 103.979 17.8486 109.097 15.1807 115.538C13.1797 120.369 13.1797 126.493 13.1797 138.741M88.7547 46.7366C88.7547 61.2545 76.9856 73.0236 62.4677 73.0236C47.9498 73.0236 36.1808 61.2545 36.1808 46.7366C36.1808 32.2188 47.9498 20.4497 62.4677 20.4497C76.9856 20.4497 88.7547 32.2188 88.7547 46.7366Z" stroke="black" stroke-width="11.8291" stroke-linecap="round" stroke-linejoin="round"/>
</svg>
